<svg width="237" height="237" xmlns="http://www.w3.org/2000/svg">
 <!-- Created with Method Draw - http://github.com/duopixel/Method-Draw/ -->
 <g>
  <title>background</title>
  <rect fill="#fff" id="canvas_background" height="239" width="239" y="-1" x="-1"/>
 </g>
 <g>
  <title>Layer 1</title>
  <ellipse ry="87.244907" rx="87.244907" id="svg_14" cy="93.095687" cx="146.223597" fill-opacity="null" stroke-width="3" stroke="#919191" fill="#ffffff"/>
  <ellipse fill-opacity="0" stroke="#e56e00" ry="77.551031" rx="77.551031" id="svg_11" cy="93.265759" cx="146.053527" stroke-width="10" fill="#000000"/>
  <ellipse ry="21.598642" rx="21.598642" id="svg_16" cy="92.755552" cx="24.013268" fill-opacity="null" stroke-width="3" stroke="#919191" fill="#ffffff"/>
  <ellipse ry="21.598642" rx="21.598642" id="svg_18" cy="147.177324" cx="36.63175" fill-opacity="null" stroke-width="3" stroke="#919191" fill="#ffffff"/>
  <ellipse stroke="#919191" ry="21.598642" rx="21.598642" id="svg_19" cy="212.755567" cx="141.18958" fill-opacity="null" stroke-width="3" fill="#ffffff"/>
  <ellipse ry="21.598642" rx="21.598642" id="svg_20" cy="194.356285" cx="79.077058" fill-opacity="null" stroke-width="3" stroke="#919191" fill="#ffffff"/>
  <line stroke="#919191" stroke-linecap="null" stroke-linejoin="null" id="svg_26" y2="191.597621" x2="141.291624" y1="180.680726" x1="141.291624" fill-opacity="null" stroke-opacity="null" stroke-width="3" fill="none"/>
  <line transform="rotate(36 95.37326812744136,171.65306091308597) " stroke="#919191" stroke-linecap="null" stroke-linejoin="null" id="svg_27" y2="177.111501" x2="95.373252" y1="166.194606" x1="95.373252" fill-opacity="null" stroke-opacity="null" stroke-width="3" fill="none"/>
  <line transform="rotate(-116 61.69978332519532,133.7582244873047) " stroke="#919191" stroke-linecap="null" stroke-linejoin="null" id="svg_28" y2="139.216665" x2="61.69978" y1="128.29977" x1="61.69978" fill-opacity="null" stroke-opacity="null" stroke-width="3" fill="none"/>
  <line transform="rotate(90 52.653335571289055,92.73890686035158) " stroke="#919191" stroke-linecap="null" stroke-linejoin="null" id="svg_29" y2="98.674685" x2="52.653329" y1="86.803138" x1="52.653329" fill-opacity="null" stroke-opacity="null" stroke-width="3" fill="none"/>
  <line stroke="#919191" stroke-linecap="null" stroke-linejoin="null" id="svg_36" y2="10.916457" x2="143.205798" y1="6.240501" x1="143.205798" stroke-width="3" fill="none"/>
  <path stroke="#e56e00" id="svg_37" d="m53.081453,91.269727c0,0 9.114147,0.294985 9.114147,0.294985c0,0 0,-8.259573 0.294005,-8.554558c0.294005,-0.294984 2.058033,-12.094374 2.352038,-12.389359c0.294004,-0.294985 2.940047,-8.554558 2.940047,-8.554558c0,0 6.468104,-12.094374 6.468104,-12.094374c0,0 6.762109,-10.619451 6.762109,-10.619451c0,0 9.996161,-9.439512 9.996161,-9.439512c0,0 7.056114,-5.899695 7.056114,-5.899695c0,0 11.17218,-7.374619 11.17218,-7.374619c0,0 9.996161,-2.949847 9.996161,-2.949847c0,0 13.524217,-3.244832 13.524217,-3.244833c0,0.000001 8.820142,-0.884954 8.820142,-0.884954c0,0 0,-7.964588 0,-7.964588c0,0 -17.640284,2.949848 -17.640284,2.949847c0,0.000001 -19.110307,2.949848 -19.110308,2.949848c0.000001,0 -12.054194,10.619451 -12.054194,10.619451c0,0 -11.466184,8.554558 -11.760189,8.849543c-0.294005,0.294984 -8.232132,9.734496 -8.232133,9.734495c0.000001,0.000001 -8.232132,14.749238 -8.526137,15.044223c-0.294005,0.294985 -5.880095,15.339207 -5.880095,15.339206c0,0.000001 -5.292085,24.18875 -5.292085,24.18875z" stroke-width="0" fill="#ffffff"/>
  <path stroke="#0087c6" id="svg_17" d="m128.809223,220.7801l24.826355,0.009479l-0.805621,1.190674l-23.205602,-0.028435l-0.815133,-1.171718l0.000001,0zm0.170609,-15.838668l24.494615,-0.028435l0.710861,1.22145l-25.925826,0.009479l0.72035,-1.202494zm-2.417319,7.936543l29.310284,-0.028435l-0.037887,1.221451l-29.253441,-0.018956l-0.018956,-1.17406zm29.334547,0.113289c0,8.086291 -6.579503,14.664572 -14.668134,14.664572c-8.085136,0 -14.663413,-6.579469 -14.663413,-14.664572c0,-8.085142 6.579465,-14.663421 14.663413,-14.663421c8.088632,-0.001188 14.668134,6.578279 14.668134,14.663421zm-14.666982,-15.838669c-8.730537,0 -15.835095,7.104561 -15.835095,15.837478c0,8.734106 7.104559,15.838667 15.835095,15.838667c8.73529,0 15.838662,-7.104561 15.838662,-15.838667c0,-8.732917 -7.103371,-15.837478 -15.838662,-15.837478zm4.443772,15.838669c0,8.640876 -2.341061,14.664572 -4.443772,14.664572c-2.100333,0 -4.441356,-6.023696 -4.441356,-14.664572c0,-8.643255 2.339869,-14.663421 4.441356,-14.663421c2.101524,-0.001188 4.443772,6.020166 4.443772,14.663421zm-4.443772,-15.838669c-3.647235,0 -5.615415,8.160617 -5.615415,15.837478c0,7.679205 1.96818,15.838667 5.615415,15.838667c3.647272,0 5.619019,-8.160649 5.619019,-15.838667c-0.001189,-7.676861 -1.971747,-15.837478 -5.619019,-15.837478zm10.407292,15.838669c0,8.086291 -4.670306,14.664572 -10.407292,14.664572c-5.735794,0 -10.403725,-6.579469 -10.403725,-14.664572c0,-8.085142 4.667931,-14.663421 10.403725,-14.663421c5.736986,-0.001188 10.407292,6.578279 10.407292,14.663421zm-10.407292,-15.838669c-6.382421,0 -11.577783,7.104561 -11.577783,15.837478c0,8.734106 5.195362,15.838667 11.577783,15.838667c6.384798,0 11.579008,-7.104561 11.579008,-15.838667c0,-8.732917 -5.19421,-15.837478 -11.579008,-15.837478z" fill-opacity="null" fill="#ffffff"/>
  <path stroke="#00ad62" id="svg_21" d="m81.131395,199.543427l-0.890581,-3.117034c0.260993,-0.228941 0.50596,-0.473908 0.737191,-0.736046l3.114745,0.890581c0.328531,-0.478487 0.611273,-0.986736 0.864253,-1.514446l-2.31803,-2.243623c0.111036,-0.329675 0.207192,-0.665074 0.275874,-1.010775l3.123903,-0.782979c0.022894,-0.288466 0.044644,-0.578076 0.044644,-0.87341s-0.022894,-0.5838 -0.044644,-0.872266l-3.123903,-0.782979c-0.069827,-0.345701 -0.165982,-0.6811 -0.275874,-1.010775l2.319175,-2.243623c-0.254125,-0.526565 -0.536867,-1.035959 -0.865398,-1.514446l-3.114745,0.889436c-0.230086,-0.260993 -0.476198,-0.50596 -0.737191,-0.736046l0.890581,-3.115889c-0.478487,-0.327386 -0.987881,-0.611273 -1.515591,-0.864253l-2.243624,2.319174c-0.328531,-0.111036 -0.665074,-0.206047 -1.010776,-0.275874l-0.781834,-3.125047c-0.289611,-0.021749 -0.578077,-0.044644 -0.873411,-0.044644s-0.5838,0.022894 -0.872266,0.044644l-0.782979,3.125047c-0.345701,0.069827 -0.6811,0.164838 -1.010776,0.275874l-2.243624,-2.319174c-0.526565,0.256414 -1.034814,0.539156 -1.513302,0.867687l0.890581,3.115889c-0.260993,0.228941 -0.507105,0.475053 -0.736046,0.734901l-3.11589,-0.890581c-0.328531,0.478487 -0.611273,0.987881 -0.864253,1.51559l2.319175,2.243623c-0.109892,0.329675 -0.206047,0.665074 -0.275874,1.010775l-3.125048,0.782979c-0.021749,0.288466 -0.044644,0.578076 -0.044644,0.872266s0.022894,0.5838 0.044644,0.87341l3.125048,0.782979c0.069827,0.345701 0.165982,0.6811 0.275874,1.010775l-2.319175,2.243623c0.25298,0.526565 0.535722,1.035959 0.864253,1.514446l3.11589,-0.890581c0.228941,0.262138 0.475053,0.50596 0.736046,0.736046l-0.890581,3.117034c0.478487,0.327386 0.987881,0.610128 1.514446,0.864253l2.243624,-2.319174c0.329675,0.111036 0.665074,0.207192 1.010776,0.275874l0.782979,3.123902c0.288466,0.022894 0.578077,0.044644 0.873411,0.044644s0.5838,-0.022894 0.873411,-0.044644l0.781834,-3.123902c0.345701,-0.069827 0.682245,-0.165982 1.010776,-0.275874l2.243624,2.319174c0.52542,-0.256414 1.034814,-0.539156 1.513302,-0.866542zm-6.424091,-5.495732c-2.148613,0 -3.890856,-1.742242 -3.890856,-3.890855s1.742243,-3.88971 3.890856,-3.88971s3.889711,1.741097 3.889711,3.88971s-1.741098,3.890855 -3.889711,3.890855zm17.733787,8.133134c0.021749,-0.626154 -0.068682,-1.263755 -0.263282,-1.893343l1.424014,-2.029563c-0.215205,-0.400647 -0.457882,-0.780689 -0.733757,-1.12639l-2.429066,0.509394c-0.489934,-0.416673 -1.047406,-0.741769 -1.643798,-0.974145l-0.699415,-2.379843c-0.441857,-0.07784 -0.889437,-0.120194 -1.34274,-0.121339l-1.114944,2.21615c-0.319373,0.061814 -0.638746,0.146522 -0.952396,0.266716c-0.294189,0.112181 -0.568919,0.251835 -0.832201,0.404081l-2.296281,-0.937514c-0.339978,0.299913 -0.650193,0.623865 -0.930646,0.975289l1.038248,2.252781c-0.296479,0.566629 -0.500237,1.176757 -0.594102,1.814359l-2.164639,1.213388c0.021749,0.444146 0.086998,0.888292 0.187732,1.333582l2.408462,0.594102c0.264427,0.599826 0.619286,1.136693 1.048551,1.594575l-0.402937,2.447381c0.366306,0.263282 0.755506,0.489934 1.159587,0.686823l1.963171,-1.511012c0.613562,0.161404 1.255743,0.223218 1.902502,0.171706l1.662113,1.839542c0.228941,-0.065248 0.456738,-0.135075 0.682245,-0.220928c0.200324,-0.075551 0.3892,-0.164838 0.578077,-0.255269l0.042354,-2.478288c0.520841,-0.388055 0.964987,-0.855095 1.318701,-1.380515l2.47371,-0.153391c0.173995,-0.410949 0.319373,-0.837925 0.421252,-1.276347l-1.910515,-1.581983zm-4.765412,2.297424c-1.374792,0.524275 -2.913277,-0.164838 -3.438697,-1.539629s0.163693,-2.914421 1.538485,-3.439841c1.374792,-0.524275 2.915567,0.164838 3.440987,1.539629c0.524275,1.374792 -0.165982,2.914421 -1.540774,3.439841z" fill="#ffffff"/>
  <path stroke="#ffffff" id="svg_22" d="m189.524965,78.967193l-19.582853,5.416534c-1.794311,-4.768028 -4.495858,-8.900992 -7.765267,-12.190562l10.355929,-18.279122c0.910596,-1.612864 0.349454,-3.669265 -1.27685,-4.586581c-1.609504,-0.910596 -3.662545,-0.342734 -4.56978,1.26677l-9.825028,17.345005c-2.02952,-1.286931 -4.166565,-2.315131 -6.384252,-3.010679c-1.397815,-4.828511 -5.550939,-8.10128 -10.275286,-8.60866c-0.00336,-0.013441 -0.00672,-0.026881 -0.01008,-0.040322c-0.204968,-0.813152 -0.312492,-1.545661 -0.329293,-2.184086c-0.016801,-0.635065 0.040322,-1.179407 0.154566,-1.609504c0.124325,-0.436817 0.26545,-0.789631 0.420017,-1.065162c0.490579,-0.873635 1.142445,-1.444857 1.938797,-1.710308c0.077283,0.944197 0.477139,1.619584 1.182767,2.01944c0.520821,0.295692 1.129005,0.386415 1.834632,0.288971c0.708988,-0.104164 1.26341,-0.51074 1.666626,-1.219728c0.352814,-0.624985 0.426737,-1.307092 0.215048,-2.039601c-0.215048,-0.735869 -0.682107,-1.303732 -1.391095,-1.703587c-0.51746,-0.292332 -1.055082,-0.440177 -1.619584,-0.433457c-0.561142,0.00336 -1.098763,0.114245 -1.616224,0.325933c-0.5141,0.211688 -0.994599,0.537621 -1.441497,0.971078c-0.443538,0.433457 -0.809792,0.910596 -1.108844,1.431417c-0.443538,0.786271 -0.725789,1.666626 -0.840033,2.630984c-0.110884,0.960998 -0.124325,1.898475 -0.030241,2.822512c0.057122,0.537621 0.204968,1.0114 0.315852,1.5087c-1.26005,-0.070563 -2.546981,0.00672 -3.830551,0.362894c-1.619584,0.446898 -3.067801,1.209648 -4.30097,2.194167c-0.174727,-0.577943 -0.329293,-1.155886 -0.604824,-1.740549c-0.389775,-0.836673 -0.883715,-1.633025 -1.471738,-2.405855c-0.598104,-0.76947 -1.290291,-1.377654 -2.076562,-1.824552c-0.51746,-0.288971 -1.078603,-0.50738 -1.683426,-0.651866c-0.604824,-0.144486 -1.182767,-0.174727 -1.733828,-0.090724s-1.068522,0.268811 -1.555741,0.551062c-0.490579,0.282251 -0.873634,0.688827 -1.169326,1.199567c-0.399856,0.708988 -0.50402,1.438137 -0.315852,2.174006c0.194888,0.742589 0.608184,1.290291 1.233169,1.646465c0.705628,0.399856 1.394455,0.463698 2.053041,0.188167c0.658586,-0.275531 1.132365,-0.668666 1.428056,-1.192847c0.399856,-0.705628 0.396496,-1.488539 -0.023521,-2.335292c0.819872,-0.184807 1.669986,-0.026881 2.54362,0.473779c0.272171,0.151206 0.574583,0.386415 0.907236,0.698908c0.325933,0.309132 0.648506,0.745949 0.960998,1.303732c0.315852,0.557782 0.601464,1.236529 0.843393,2.042961c0.043682,0.147846 0.077283,0.329293 0.117605,0.490579c-3.061081,2.78219 -4.5597,7.015957 -3.689426,11.279966c-1.955597,1.962318 -3.602062,4.267369 -4.895713,6.83787l-17.338285,-9.831748c-1.612864,-0.910596 -3.669265,-0.342734 -4.583221,1.26677c-0.910596,1.619584 -0.342734,3.675985 1.27013,4.593301l18.282482,10.355929c-1.112204,4.502578 -1.300371,9.431893 -0.393136,14.43849l-19.582853,5.419894c-1.794311,0.49394 -2.842672,2.348733 -2.345373,4.136323c0.49394,1.78087 2.342012,2.832592 4.136323,2.331932l19.75422,-5.466936c1.690147,3.55166 4.579861,7.661103 7.966875,11.568937l-10.732264,18.947789c-0.913956,1.616224 -0.349454,3.669265 1.27013,4.579861c0.803072,0.460338 1.720388,0.544342 2.546981,0.315852c0.833313,-0.228489 1.575902,-0.76947 2.02952,-1.582623l9.727584,-17.166918c9.072358,8.716184 19.098994,13.853827 19.414847,3.53822c5.369492,8.60194 11.595818,-1.135725 15.127317,-13.359888l17.48277,9.902311c0.806432,0.463698 1.727108,0.544342 2.560421,0.315852c0.826593,-0.225129 1.569182,-0.76947 2.02616,-1.582623c0.913956,-1.609504 0.349454,-3.665905 -1.26677,-4.576501l-19.156116,-10.849869c0.977799,-5.057 1.417976,-10.023276 1.071882,-13.904229l19.777741,-5.466936c1.78087,-0.49394 2.846032,-2.342013 2.338652,-4.129603c-0.4973,-1.787591 -2.352093,-2.835952 -4.139683,-2.342013z" fill="#b20000"/>
  <path stroke="#ffffff" id="svg_23" d="m51.295966,145.757079l-3.901079,-3.901077l0,-9.316974l-3.344328,0l0,5.972648l-7.803431,-7.803428l-15.048838,15.048831l3.582571,-0.08536l0,15.214455l22.773279,0l0,-15.129095l3.741825,0zm-15.048838,12.953053l-7.431415,0l0,-8.918203l7.431415,0l0,8.918203zm7.219926,-3.822087l-4.883355,0l0,-5.149625l4.883355,0l0,5.149625z" stroke-width="null" fill="#08ad9f"/>
  <path id="svg_24" d="m-3.244132,219.234676l-0.01531,-0.01531l0,-0.036565l-0.013125,0l0,0.02344l-0.030625,-0.030625l-0.05906,0.05906l0.01406,-0.000335l0,0.05971l0.089375,0l0,-0.059375l0.014685,0zm-0.05906,0.050835l-0.029165,0l0,-0.035l0.029165,0l0,0.035zm0.028335,-0.015l-0.019165,0l0,-0.02021l0.019165,0l0,0.02021z" stroke-width="null" stroke="#ffffff" fill="#b20000"/>
  <line stroke-linecap="null" stroke-linejoin="null" id="svg_25" y2="38.294906" x2="198.84721" y1="148.299556" x1="88.842559" stroke-width="12" stroke="#e56e00" fill="none"/>
  <path stroke="#e56e00" id="svg_31" d="m24.217822,75.049313c-10.125206,0 -18.333331,8.070187 -18.333331,18.025209c0,9.955243 8.208125,18.025214 18.333331,18.025214c10.125425,0 18.333335,-8.069969 18.333335,-18.025214c0,-9.955022 -8.207911,-18.025209 -18.333335,-18.025209zm-1.567963,8.103542l3.052671,0l0,3.192493l-3.052671,0l0,-3.192493zm5.052015,19.374724l-3.357741,0c-1.3045,0 -1.860764,-0.545718 -1.860764,-1.855508l0,-8.513949c0,-0.40924 -0.221829,-0.600368 -0.610393,-0.600368l-1.110094,0l0,-2.947904l3.357977,0c1.305468,0 1.859318,0.572921 1.859318,1.85527l0,8.541382c0,0.383229 0.22183,0.600379 0.610393,0.600379l1.110107,0l0,2.920696l0.001197,0l0,0.000001z" stroke-opacity="null" stroke-width="0" fill="#ff2d9d"/>
 </g>
</svg>